<?xml version="1.0" encoding="UTF-8"?>
<svg width="24px" height="24px" viewBox="0 0 24 24" version="1.1" xmlns="http://www.w3.org/2000/svg" xmlns:xlink="http://www.w3.org/1999/xlink">
    <!-- Generator: Sketch 43.2 (39069) - http://www.bohemiancoding.com/sketch -->
    <title>classic-mac</title>
    <desc>Created with Sketch.</desc>
    <defs></defs>
    <g id="Page-1" stroke="none" stroke-width="1" fill="none" fill-rule="evenodd">
        <g id="Artboard-4" transform="translate(-576.000000, -291.000000)">
            <g id="93" transform="translate(576.000000, 291.000000)">
                <rect id="Rectangle-29" stroke="#333333" stroke-width="2" x="4" y="1" width="16" height="19" rx="1"></rect>
                <path d="M5,20 L19,20 L19,22.0010434 C19,22.5527519 18.5500512,23 17.9931545,23 L6.00684547,23 C5.45078007,23 5,22.5573397 5,22.0010434 L5,20 Z" id="Rectangle-30" stroke="#333333" stroke-width="2"></path>
                <path d="M7,3.5 L6.5,3.5 L6.5,4 L6.5,12 L6.5,12.5 L7,12.5 L12,12.5 L17,12.5 L17.5,12.5 L17.5,12 L17.5,4 L17.5,3.5 L17,3.5 L7,3.5 Z" id="Rectangle-31" stroke="#333333" stroke-linejoin="round"></path>
                <rect id="Combined-Shape" fill="#333333" x="13" y="15" width="4" height="1"></rect>
                <rect id="Rectangle-34" fill="#333333" x="6" y="16" width="2" height="1"></rect>
                <path d="M9,5 L10,5 L10,7 L9,7 L9,5 Z M11,8 L12,8 L12,9 L11,9 L11,8 Z M12,5 L13,5 L13,9 L12,9 L12,5 Z M9,9 L10,9 L10,10 L9,10 L9,9 Z M10,10 L14,10 L14,11 L10,11 L10,10 Z M14,9 L15,9 L15,10 L14,10 L14,9 Z M14,5 L15,5 L15,7 L14,7 L14,5 Z" id="Combined-Shape" fill="#333333" opacity="0.5"></path>
            </g>
        </g>
    </g>
</svg>